<?xml version="1.0" encoding="iso-8859-1"?>
<!-- Generator: Adobe Illustrator 19.0.0, SVG Export Plug-In . SVG Version: 6.00 Build 0)  -->
<svg version="1.1" id="Capa_1" xmlns="http://www.w3.org/2000/svg" xmlns:xlink="http://www.w3.org/1999/xlink" x="0px" y="0px"
	 viewBox="0 0 512 512" style="enable-background:new 0 0 512 512;" xml:space="preserve">
<g>
	<g>
		<path d="M425.19,223.625c-13.295-13.286-34.944-13.286-48.196-0.06l-86.861,84.966V34.099C290.133,15.292,274.825,0,256,0
			s-34.133,15.3-34.133,34.099v274.458l-86.801-84.932c-13.303-13.295-34.953-13.295-48.256,0
			c-6.451,6.443-10.001,15.002-10.001,24.115s3.55,17.681,10.001,24.115c0.008,0.017,0.026,0.026,0.034,0.034l148.361,146.287
			c5.726,5.649,13.227,8.465,20.719,8.465c7.535,0,15.07-2.85,20.779-8.55L425.19,271.855c6.443-6.443,10.001-15.002,10.001-24.115
			C435.191,238.626,431.642,230.067,425.19,223.625z M413.175,259.738L264.687,405.973c-4.813,4.813-12.663,4.821-17.502,0.051
			L98.85,259.755c-3.217-3.209-4.983-7.475-4.975-12.006c0-4.548,1.775-8.823,4.992-12.041c6.656-6.647,17.485-6.647,24.201,0.06
			l101.359,99.183c2.458,2.406,6.127,3.106,9.276,1.766c3.166-1.331,5.222-4.437,5.222-7.868V34.099
			c0-9.395,7.654-17.033,17.067-17.033c9.412,0,17.067,7.637,17.067,17.033v294.716c0,3.43,2.057,6.537,5.222,7.868
			c3.157,1.323,6.818,0.64,9.276-1.766l101.436-99.209c6.665-6.639,17.493-6.639,24.149,0c3.217,3.217,4.992,7.492,4.992,12.041
			C418.133,252.288,416.358,256.563,413.175,259.738z"/>
	</g>
</g>
<g>
	<g>
		<path d="M401.067,443.733H110.933c-18.825,0-34.133,15.309-34.133,34.133S92.109,512,110.933,512h290.133
			c18.816,0,34.133-15.309,34.133-34.133S419.891,443.733,401.067,443.733z M401.067,494.933H110.933
			c-9.412,0-17.067-7.654-17.067-17.067s7.654-17.067,17.067-17.067h290.133c9.412,0,17.067,7.654,17.067,17.067
			S410.479,494.933,401.067,494.933z"/>
	</g>
</g>
<g>
</g>
<g>
</g>
<g>
</g>
<g>
</g>
<g>
</g>
<g>
</g>
<g>
</g>
<g>
</g>
<g>
</g>
<g>
</g>
<g>
</g>
<g>
</g>
<g>
</g>
<g>
</g>
<g>
</g>
</svg>
