<svg id="Capa_1" enable-background="new 0 0 512 512" height="512" viewBox="0 0 512 512" width="512" xmlns="http://www.w3.org/2000/svg"><g><g><g><path d="m40.303 168.541h431.393v335.959h-431.393z" fill="#f2f5fb"/></g><g><path d="m472.196 505h-432.393v-336.959h432.393zm-431.393-1h430.393v-334.959h-430.393z" fill="#fefaf4"/></g></g><g><g><path d="m441.696 168.541h30v335.959h-30z" fill="#e6e8f0"/></g></g><g><g><path d="m40.303 277.207h431.393v227.293h-431.393z" fill="#f9eed7"/></g><g><path d="m472.196 505h-432.393v-228.293h432.393zm-431.393-1h430.393v-226.293h-430.393z" fill="#fefaf4"/></g></g><g><g><path d="m441.696 277.207h30v227.293h-30z" fill="#e9e0c3"/></g></g><g><g><path d="m428.856 102.622h64.025c1.614 0 2.923 1.308 2.923 2.922v60.074c0 1.614-1.309 2.923-2.923 2.923h-476.685v-62.996c0-1.614 1.308-2.922 2.922-2.922h65.137" fill="#5d656e"/></g></g><g><g><path d="m84.255 102.622h344.601" fill="#5d656e"/></g></g><g><g><path d="m84.255 498.984v-181.097c0-4.617 3.743-8.36 8.36-8.36h89.656c4.617 0 8.36 3.743 8.36 8.36v180.465" fill="#5d656e"/></g></g><g><g><path d="m492.818 102.622h-30.653c1.649 0 2.986 1.337 2.986 2.986v59.947c0 1.649-1.337 2.986-2.986 2.986h30.653c1.649 0 2.986-1.337 2.986-2.986v-59.947c0-1.649-1.337-2.986-2.986-2.986z" fill="#474d54"/></g></g><g><g><path d="m427.818 460.753h-185.298c-2.672 0-4.838-2.166-4.838-4.838v-141.55c0-2.672 2.166-4.838 4.838-4.838h185.298c2.672 0 4.838 2.166 4.838 4.838v141.551c-.001 2.671-2.167 4.837-4.838 4.837z" fill="#cee4f8"/></g></g><g><g><path d="m178.829 309.527h-26.559c4.617 0 8.36 3.743 8.36 8.36v180.465l-79.817.475v.158l106.375-.632v-180.466c.001-4.617-3.742-8.36-8.359-8.36z" fill="#474d54"/></g></g><g><g><path d="m427.818 309.527h-30c2.672 0 4.838 2.166 4.838 4.838v141.551c0 2.672-2.166 4.838-4.838 4.838h30c2.672 0 4.838-2.166 4.838-4.838v-141.551c-.001-2.672-2.167-4.838-4.838-4.838z" fill="#bed9fd"/></g></g><g><g><path d="m416.792 126.589h-321.584c-4.071 0-7.37-3.3-7.37-7.37v-104.349c0-4.071 3.3-7.37 7.37-7.37h321.583c4.07 0 7.37 3.3 7.37 7.37v104.348c.001 4.071-3.299 7.371-7.369 7.371z" fill="#f2f5fb"/></g></g><g><g><path d="m416.792 7.5h-30c4.07 0 7.37 3.3 7.37 7.37v104.348c0 4.071-3.3 7.37-7.37 7.37h30c4.07 0 7.37-3.3 7.37-7.37v-104.348c0-4.07-3.3-7.37-7.37-7.37z" fill="#e6e8f0"/></g></g><g><circle cx="137.442" cy="407.013" r="8.793"/><path d="m492.818 176.041c5.782 0 10.486-4.704 10.486-10.486v-59.947c0-5.782-4.704-10.486-10.486-10.486h-61.156v-80.251c0-8.2-6.671-14.871-14.871-14.871h-321.583c-8.199 0-14.87 6.671-14.87 14.871v80.252h-61.156c-5.782 0-10.486 4.704-10.486 10.486v62.933c0 4.142 3.358 7.5 7.5 7.5h16.607v320.958h-16.607c-4.142 0-7.5 3.358-7.5 7.5s3.358 7.5 7.5 7.5h479.608c4.142 0 7.5-3.358 7.5-7.5s-3.358-7.5-7.5-7.5h-16.608v-320.959zm-397.48-161.041h321.324v104.089h-321.324zm87.792 482h-91.375v-179.113c0-.474.386-.86.86-.86h89.655c.475 0 .86.386.86.86zm281.066 0h-266.066v-179.113c0-8.745-7.115-15.86-15.86-15.86h-89.655c-8.745 0-15.86 7.115-15.86 15.86v179.113h-28.952v-212.293h416.393zm-416.393-227.293v-42.765h32.535v42.765zm47.535 0v-42.765h33.046v42.765zm48.046 0v-42.765h33.046v42.765zm48.046 0v-42.765h33.046v42.765zm48.047 0v-42.765h33.046v42.765zm48.046 0v-42.765h33.046v42.765zm48.046 0v-42.765h33.046v42.765zm48.047 0v-42.765h33.046v42.765zm80.58 0h-32.534v-42.765h32.534zm-304.652-93.666h304.652v35.901h-416.393v-35.901h81.088c4.142 0 7.5-3.358 7.5-7.5s-3.358-7.5-7.5-7.5h-105.195v-50.919h56.642v9.096c0 8.2 6.671 14.87 14.87 14.87h321.583c8.2 0 14.871-6.671 14.871-14.87v-9.096h56.642v50.919h-328.76c-4.142 0-7.5 3.358-7.5 7.5s3.358 7.5 7.5 7.5z"/><path d="m242.52 468.253h103.596c4.142 0 7.5-3.358 7.5-7.5s-3.358-7.5-7.5-7.5h-25.161v-136.226h104.201v136.226h-49.04c-4.142 0-7.5 3.358-7.5 7.5s3.358 7.5 7.5 7.5h51.702c6.803 0 12.338-5.535 12.338-12.338v-141.55c0-6.803-5.535-12.338-12.338-12.338h-185.298c-6.803 0-12.337 5.535-12.337 12.338v141.551c-.001 6.803 5.534 12.337 12.337 12.337zm2.662-151.226h60.773v24.489h-60.773zm0 39.489h60.773v21.124h-60.773zm0 36.124h60.773v21.125h-60.773zm0 36.124h60.773v24.489h-60.773z"/><path d="m227.296 48.138h14.627c4.142 0 7.5-3.358 7.5-7.5s-3.358-7.5-7.5-7.5h-14.627c-15.82 0-29.095 11.07-32.508 25.868h-57.39c-4.142 0-7.5 3.358-7.5 7.5s3.358 7.5 7.5 7.5h57.39c3.413 14.799 16.688 25.869 32.508 25.869h14.627c4.142 0 7.5-3.358 7.5-7.5s-3.358-7.5-7.5-7.5h-14.627c-7.456 0-13.875-4.472-16.751-10.869h31.378c4.142 0 7.5-3.358 7.5-7.5s-3.358-7.5-7.5-7.5h-31.378c2.876-6.396 9.295-10.868 16.751-10.868z"/><path d="m374.602 59.006h-57.39c-3.414-14.798-16.688-25.868-32.508-25.868h-14.627c-4.142 0-7.5 3.358-7.5 7.5s3.358 7.5 7.5 7.5h14.627c10.128 0 18.369 8.24 18.369 18.368s-8.24 18.369-18.369 18.369h-14.627c-4.142 0-7.5 3.358-7.5 7.5s3.358 7.5 7.5 7.5h14.627c15.82 0 29.095-11.07 32.508-25.869h57.39c4.142 0 7.5-3.358 7.5-7.5s-3.358-7.5-7.5-7.5z"/></g></g></svg>